
<svg width="162px" height="42px" viewBox="0 0 162 42" version="1.1" xmlns="http://www.w3.org/2000/svg" xmlns:xlink="http://www.w3.org/1999/xlink">
    <defs>
        <linearGradient x1="1.56125113e-15%" y1="100%" x2="101.855494%" y2="1.04083409e-14%" id="linearGradient-jpyl6_776h-1">
            <stop stop-color="#457FCA" offset="0%"></stop>
            <stop stop-color="#5691C8" offset="100%"></stop>
        </linearGradient>
    </defs>
    <g id="Flow" stroke="none" stroke-width="1" fill="none" fill-rule="evenodd">
        <g id="rulemate.eu-copy" transform="translate(58.300000, 14.480000)" fill="#528CC8" fill-rule="nonzero">
            <path d="M0,14.02 L0,4.1 L2.4,4.1 L2.6,5.84 L2.68,5.84 C3.04,5.16 3.47333333,4.66 3.98,4.34 C4.48666667,4.02 4.99333333,3.86 5.5,3.86 C5.78,3.86 6.01,3.87666667 6.19,3.91 C6.37,3.94333333 6.53333333,3.99333333 6.68,4.06 L6.2,6.6 C6.01333333,6.54666667 5.84,6.50666667 5.68,6.48 C5.52,6.45333333 5.33333333,6.44 5.12,6.44 C4.74666667,6.44 4.35666667,6.57333333 3.95,6.84 C3.54333333,7.10666667 3.20666667,7.58 2.94,8.26 L2.94,14.02 L0,14.02 Z" id="r"></path>
            <path d="M10.94,14.26 C9.86,14.26 9.07666667,13.9066667 8.59,13.2 C8.10333333,12.4933333 7.86,11.5133333 7.86,10.26 L7.86,4.1 L10.8,4.1 L10.8,9.88 C10.8,10.6 10.9,11.0933333 11.1,11.36 C11.3,11.6266667 11.6133333,11.76 12.04,11.76 C12.4133333,11.76 12.7266667,11.6733333 12.98,11.5 C13.2333333,11.3266667 13.5066667,11.0466667 13.8,10.66 L13.8,4.1 L16.74,4.1 L16.74,14.02 L14.34,14.02 L14.12,12.64 L14.06,12.64 C13.6333333,13.1466667 13.1766667,13.5433333 12.69,13.83 C12.2033333,14.1166667 11.62,14.26 10.94,14.26 Z" id="u"></path>
            <path d="M22.02,14.26 C21.5133333,14.26 21.0866667,14.18 20.74,14.02 C20.3933333,13.86 20.1166667,13.6366667 19.91,13.35 C19.7033333,13.0633333 19.5533333,12.7166667 19.46,12.31 C19.3666667,11.9033333 19.32,11.4466667 19.32,10.94 L19.32,0 L22.26,0 L22.26,11.06 C22.26,11.3666667 22.3166667,11.58 22.43,11.7 C22.5433333,11.82 22.66,11.88 22.78,11.88 C22.8466667,11.88 22.9033333,11.88 22.95,11.88 C22.9966667,11.88 23.06,11.8666667 23.14,11.84 L23.5,14.02 C23.34,14.0866667 23.1366667,14.1433333 22.89,14.19 C22.6433333,14.2366667 22.3533333,14.26 22.02,14.26 Z" id="l"></path>
            <path d="M29.48,14.26 C28.7733333,14.26 28.1133333,14.1433333 27.5,13.91 C26.8866667,13.6766667 26.3533333,13.3366667 25.9,12.89 C25.4466667,12.4433333 25.0933333,11.9 24.84,11.26 C24.5866667,10.62 24.46,9.88666667 24.46,9.06 C24.46,8.26 24.5933333,7.53666667 24.86,6.89 C25.1266667,6.24333333 25.4766667,5.69666667 25.91,5.25 C26.3433333,4.80333333 26.84,4.46 27.4,4.22 C27.96,3.98 28.54,3.86 29.14,3.86 C29.8466667,3.86 30.4633333,3.98 30.99,4.22 C31.5166667,4.46 31.9566667,4.79333333 32.31,5.22 C32.6633333,5.64666667 32.9266667,6.15 33.1,6.73 C33.2733333,7.31 33.36,7.94 33.36,8.62 C33.36,8.88666667 33.3466667,9.14 33.32,9.38 C33.2933333,9.62 33.2666667,9.8 33.24,9.92 L27.3,9.92 C27.4333333,10.64 27.73,11.17 28.19,11.51 C28.65,11.85 29.2133333,12.02 29.88,12.02 C30.5866667,12.02 31.3,11.8 32.02,11.36 L33,13.14 C32.4933333,13.4866667 31.93,13.76 31.31,13.96 C30.69,14.16 30.08,14.26 29.48,14.26 Z M27.28,7.98 L30.86,7.98 C30.86,7.42 30.7333333,6.96666667 30.48,6.62 C30.2266667,6.27333333 29.8,6.1 29.2,6.1 C28.7333333,6.1 28.3233333,6.25333333 27.97,6.56 C27.6166667,6.86666667 27.3866667,7.34 27.28,7.98 Z" id="e"></path>
            <path d="M35.4,14.02 L35.4,4.1 L37.8,4.1 L38,5.38 L38.08,5.38 C38.4933333,4.96666667 38.9333333,4.61 39.4,4.31 C39.8666667,4.01 40.4266667,3.86 41.08,3.86 C41.7866667,3.86 42.3566667,4.00333333 42.79,4.29 C43.2233333,4.57666667 43.5666667,4.98666667 43.82,5.52 C44.26,5.06666667 44.7233333,4.67666667 45.21,4.35 C45.6966667,4.02333333 46.2733333,3.86 46.94,3.86 C48.0066667,3.86 48.79,4.21666667 49.29,4.93 C49.79,5.64333333 50.04,6.62 50.04,7.86 L50.04,14.02 L47.1,14.02 L47.1,8.24 C47.1,7.52 47.0033333,7.02666667 46.81,6.76 C46.6166667,6.49333333 46.3066667,6.36 45.88,6.36 C45.3866667,6.36 44.82,6.68 44.18,7.32 L44.18,14.02 L41.24,14.02 L41.24,8.24 C41.24,7.52 41.1433333,7.02666667 40.95,6.76 C40.7566667,6.49333333 40.4466667,6.36 40.02,6.36 C39.5133333,6.36 38.9533333,6.68 38.34,7.32 L38.34,14.02 L35.4,14.02 Z" id="m"></path>
            <path d="M55.04,14.26 C54.5866667,14.26 54.1766667,14.1833333 53.81,14.03 C53.4433333,13.8766667 53.1333333,13.6633333 52.88,13.39 C52.6266667,13.1166667 52.43,12.8 52.29,12.44 C52.15,12.08 52.08,11.6866667 52.08,11.26 C52.08,10.22 52.52,9.40666667 53.4,8.82 C54.28,8.23333333 55.7,7.84 57.66,7.64 C57.6333333,7.2 57.5033333,6.85 57.27,6.59 C57.0366667,6.33 56.6466667,6.2 56.1,6.2 C55.6733333,6.2 55.25,6.28 54.83,6.44 C54.41,6.6 53.96,6.82 53.48,7.1 L52.42,5.16 C53.06,4.77333333 53.73,4.46 54.43,4.22 C55.13,3.98 55.8733333,3.86 56.66,3.86 C57.94,3.86 58.9166667,4.22333333 59.59,4.95 C60.2633333,5.67666667 60.6,6.80666667 60.6,8.34 L60.6,14.02 L58.2,14.02 L58,13 L57.92,13 C57.4933333,13.3733333 57.0466667,13.6766667 56.58,13.91 C56.1133333,14.1433333 55.6,14.26 55.04,14.26 Z M56.04,11.98 C56.3733333,11.98 56.66,11.9066667 56.9,11.76 C57.14,11.6133333 57.3933333,11.4066667 57.66,11.14 L57.66,9.4 C56.62,9.54666667 55.9,9.76 55.5,10.04 C55.1,10.32 54.9,10.6533333 54.9,11.04 C54.9,11.36 55.0033333,11.5966667 55.21,11.75 C55.4166667,11.9033333 55.6933333,11.98 56.04,11.98 Z" id="a"></path>
            <path d="M66.54,14.26 C65.9266667,14.26 65.4033333,14.1666667 64.97,13.98 C64.5366667,13.7933333 64.1833333,13.5333333 63.91,13.2 C63.6366667,12.8666667 63.4366667,12.4633333 63.31,11.99 C63.1833333,11.5166667 63.12,10.9933333 63.12,10.42 L63.12,6.4 L61.76,6.4 L61.76,4.22 L63.28,4.1 L63.62,1.46 L66.06,1.46 L66.06,4.1 L68.44,4.1 L68.44,6.4 L66.06,6.4 L66.06,10.38 C66.06,10.94 66.1766667,11.3433333 66.41,11.59 C66.6433333,11.8366667 66.9533333,11.96 67.34,11.96 C67.5,11.96 67.6633333,11.94 67.83,11.9 C67.9966667,11.86 68.1466667,11.8133333 68.28,11.76 L68.74,13.9 C68.4733333,13.98 68.16,14.06 67.8,14.14 C67.44,14.22 67.02,14.26 66.54,14.26 Z" id="t"></path>
            <path d="M74.46,14.26 C73.7533333,14.26 73.0933333,14.1433333 72.48,13.91 C71.8666667,13.6766667 71.3333333,13.3366667 70.88,12.89 C70.4266667,12.4433333 70.0733333,11.9 69.82,11.26 C69.5666667,10.62 69.44,9.88666667 69.44,9.06 C69.44,8.26 69.5733333,7.53666667 69.84,6.89 C70.1066667,6.24333333 70.4566667,5.69666667 70.89,5.25 C71.3233333,4.80333333 71.82,4.46 72.38,4.22 C72.94,3.98 73.52,3.86 74.12,3.86 C74.8266667,3.86 75.4433333,3.98 75.97,4.22 C76.4966667,4.46 76.9366667,4.79333333 77.29,5.22 C77.6433333,5.64666667 77.9066667,6.15 78.08,6.73 C78.2533333,7.31 78.34,7.94 78.34,8.62 C78.34,8.88666667 78.3266667,9.14 78.3,9.38 C78.2733333,9.62 78.2466667,9.8 78.22,9.92 L72.28,9.92 C72.4133333,10.64 72.71,11.17 73.17,11.51 C73.63,11.85 74.1933333,12.02 74.86,12.02 C75.5666667,12.02 76.28,11.8 77,11.36 L77.98,13.14 C77.4733333,13.4866667 76.91,13.76 76.29,13.96 C75.67,14.16 75.06,14.26 74.46,14.26 Z M72.26,7.98 L75.84,7.98 C75.84,7.42 75.7133333,6.96666667 75.46,6.62 C75.2066667,6.27333333 74.78,6.1 74.18,6.1 C73.7133333,6.1 73.3033333,6.25333333 72.95,6.56 C72.5966667,6.86666667 72.3666667,7.34 72.26,7.98 Z" id="e"></path>
            <path d="M81.58,14.26 C81.2466667,14.26 80.9633333,14.1433333 80.73,13.91 C80.4966667,13.6766667 80.38,13.38 80.38,13.02 C80.38,12.6333333 80.4966667,12.3233333 80.73,12.09 C80.9633333,11.8566667 81.2466667,11.74 81.58,11.74 C81.9,11.74 82.1766667,11.8566667 82.41,12.09 C82.6433333,12.3233333 82.76,12.6333333 82.76,13.02 C82.76,13.38 82.6433333,13.6766667 82.41,13.91 C82.1766667,14.1433333 81.9,14.26 81.58,14.26 Z" id="."></path>
            <path d="M89.42,14.26 C88.7666667,14.26 88.1566667,14.1433333 87.59,13.91 C87.0233333,13.6766667 86.53,13.3433333 86.11,12.91 C85.69,12.4766667 85.36,11.9466667 85.12,11.32 C84.88,10.6933333 84.76,9.98 84.76,9.18 C84.76,8.38 84.8833333,7.66333333 85.13,7.03 C85.3766667,6.39666667 85.7033333,5.86 86.11,5.42 C86.5166667,4.98 86.98,4.64333333 87.5,4.41 C88.02,4.17666667 88.56,4.06 89.12,4.06 C89.7333333,4.06 90.2833333,4.16666667 90.77,4.38 C91.2566667,4.59333333 91.6633333,4.9 91.99,5.3 C92.3166667,5.7 92.5666667,6.18 92.74,6.74 C92.9133333,7.3 93,7.92666667 93,8.62 C93,8.79333333 92.9966667,8.96333333 92.99,9.13 C92.9833333,9.29666667 92.9666667,9.44 92.94,9.56 L86.38,9.56 C86.4466667,10.6 86.77,11.4233333 87.35,12.03 C87.93,12.6366667 88.6866667,12.94 89.62,12.94 C90.0866667,12.94 90.5166667,12.87 90.91,12.73 C91.3033333,12.59 91.68,12.4066667 92.04,12.18 L92.62,13.26 C92.1933333,13.5266667 91.72,13.76 91.2,13.96 C90.68,14.16 90.0866667,14.26 89.42,14.26 Z M86.36,8.38 L91.56,8.38 C91.56,7.39333333 91.35,6.64333333 90.93,6.13 C90.51,5.61666667 89.92,5.36 89.16,5.36 C88.8133333,5.36 88.4833333,5.42666667 88.17,5.56 C87.8566667,5.69333333 87.5733333,5.89 87.32,6.15 C87.0666667,6.41 86.8566667,6.72666667 86.69,7.1 C86.5233333,7.47333333 86.4133333,7.9 86.36,8.38 Z" id="e"></path>
            <path d="M98.24,14.26 C97.2,14.26 96.4433333,13.94 95.97,13.3 C95.4966667,12.66 95.26,11.7133333 95.26,10.46 L95.26,4.3 L96.92,4.3 L96.92,10.24 C96.92,11.16 97.0633333,11.8233333 97.35,12.23 C97.6366667,12.6366667 98.1,12.84 98.74,12.84 C99.2466667,12.84 99.6933333,12.71 100.08,12.45 C100.466667,12.19 100.893333,11.7733333 101.36,11.2 L101.36,4.3 L103,4.3 L103,14.02 L101.64,14.02 L101.5,12.5 L101.44,12.5 C100.986667,13.0333333 100.51,13.46 100.01,13.78 C99.51,14.1 98.92,14.26 98.24,14.26 Z" id="u"></path>
        </g>
        <g id="Group-Copy">
            <path d="M17.5644268,-6.54774584e-16 L24.4355732,6.54774584e-16 C30.2168809,-4.07234408e-16 32.5564384,0.649779278 34.8379199,1.86992893 C37.1194014,3.09007857 38.9099214,4.88059859 40.1300711,7.16208008 C41.3502207,9.44356156 42,11.7831191 42,17.5644268 L42,24.4355732 C42,30.2168809 41.3502207,32.5564384 40.1300711,34.8379199 C38.9099214,37.1194014 37.1194014,38.9099214 34.8379199,40.1300711 C32.5564384,41.3502207 30.2168809,42 24.4355732,42 L17.5644268,42 C11.7831191,42 9.44356156,41.3502207 7.16208008,40.1300711 C4.88059859,38.9099214 3.09007857,37.1194014 1.86992893,34.8379199 C0.649779278,32.5564384 2.71489605e-16,30.2168809 -4.36516389e-16,24.4355732 L4.36516389e-16,17.5644268 C-2.71489605e-16,11.7831191 0.649779278,9.44356156 1.86992893,7.16208008 C3.09007857,4.88059859 4.88059859,3.09007857 7.16208008,1.86992893 C9.44356156,0.649779278 11.7831191,4.07234408e-16 17.5644268,-6.54774584e-16 Z" id="Rectangle" fill="url(#linearGradient-jpyl6_776h-1)"></path>
            <path d="M34.7222658,18.285829 C33.6941082,19.3451092 29.6377206,20.3931409 26.7171336,21.1105763 L26.7171336,21.1275218 C25.7114226,23.2912278 24.7039966,25.4531179 23.694553,27.6133435 C23.3668773,28.3138304 23.0476859,29.0257171 22.7057905,29.7121812 L22.7059876,29.7119842 C22.5507223,29.9809405 22.3142758,30.1937448 22.0305199,30.3196579 C21.7467639,30.4456067 21.4303619,30.4780758 21.1269034,30.4126627 C20.8439545,30.3401525 20.5956995,30.1701077 20.4260129,29.9322842 C20.2565583,29.6944606 20.1765625,29.4042078 20.2004014,29.1132083 C20.2342923,27.042719 20.2624701,24.969304 20.3133055,22.8987642 C20.3164581,22.8658589 20.3164581,22.8327559 20.3133055,22.7998526 C17.2653022,23.6246788 13.4663197,24.6472878 11.8985849,25.0397764 C11.4980055,25.1550462 11.0712366,25.142234 10.6783445,25.0031273 C10.1585405,24.7968299 9.91858833,24.3816829 9.57669302,23.8733292 C8.75186679,22.6162158 7.88174372,21.3847268 7.09379054,20.107941 C6.91586676,19.8811491 6.84473357,19.5887424 6.89872156,19.3056119 C6.9328092,19.1984228 6.99310343,19.1014785 7.0738912,19.0232532 C7.24886412,18.8705503 7.47053113,18.7818785 7.70244793,18.7716337 C7.93436473,18.761388 8.16292715,18.8301565 8.35072745,18.9667027 C9.25474748,19.6332927 10.1642657,20.294334 11.0653097,20.9666239 C11.1825468,21.0639616 11.34215,21.0929254 11.4861869,21.0428769 C13.7328195,20.4495791 15.9812175,19.8498247 18.2317845,19.2435128 C18.395524,19.2011497 18.4859664,19.1645006 18.4719738,19.0571148 C18.4595605,18.9924886 18.4347335,18.9312068 18.3984799,18.8762351 C17.3421757,17.0910453 16.2951024,15.3021731 15.2574617,13.5092152 C15.0941157,13.2670536 15.0216054,12.9750353 15.0527382,12.6845907 C15.0836732,12.3941562 15.2162809,12.1240297 15.4269163,11.9216567 C15.6604069,11.7165397 15.952622,11.5904349 16.2619822,11.5610777 C16.5713324,11.5315218 16.8820647,11.6004855 17.1500122,11.7579172 C17.7856812,12.1984971 18.4098999,12.6562373 19.0398186,13.1082473 C20.9757289,14.4979726 22.909672,15.8906235 24.8416479,17.2860487 L24.8755383,17.3057523 C24.9188871,17.3357022 24.9679479,17.3567844 25.0195752,17.3678211 C25.1025269,17.3833869 25.1880411,17.3776729 25.268042,17.3508756 C25.45444,17.291566 28.2791722,16.4017605 30.0192166,16.2210776 L30.0194136,16.2208805 C30.5837578,16.1767439 31.1510276,16.1842315 31.7141612,16.24354 C32.3001449,16.2593031 32.8825977,16.3389055 33.4514312,16.4807734 C34.1067726,16.6616531 35.0050927,16.9128791 35.1095075,17.4411371 C35.1800455,17.816889 34.8354263,18.1756723 34.7225221,18.2858374 L34.7222658,18.285829 Z" id="Path" fill="#FFFFFF" fill-rule="nonzero"></path>
        </g>
    </g>
</svg>